<svg version="1.1" id="Layer_1" xmlns="http://www.w3.org/2000/svg" xmlns:xlink="http://www.w3.org/1999/xlink" x="0px" y="0px"
	 width="100%" viewBox="0 0 2000 1903" enable-background="new 0 0 2000 1903" xml:space="preserve">
<path fill="transparent" opacity="1.000000" stroke="none"
	d="
M1.000000,669.000000 
	C1.000000,446.000000 1.000000,223.500000 1.000000,1.000000 
	C667.666687,1.000000 1334.333374,1.000000 2001.000000,1.000000 
	C2001.000000,635.333313 2001.000000,1269.666626 2001.000000,1904.000000 
	C1334.333374,1904.000000 667.666687,1904.000000 1.000000,1904.000000 
	C1.000000,1492.500000 1.000000,1081.000000 1.000000,669.000000 
M1530.536377,930.792786 
	C1530.402588,930.337769 1530.268799,929.882751 1530.544067,929.521484 
	C1530.544067,929.521484 1530.706421,929.134460 1531.044922,928.582703 
	C1537.706665,913.542542 1544.069580,898.360596 1551.122437,883.506104 
	C1556.978760,871.171875 1560.277466,857.820190 1566.994019,845.820740 
	C1570.672729,839.248474 1573.149658,832.003540 1576.700806,824.590942 
	C1578.349731,820.635193 1579.943481,816.655457 1581.657104,812.727905 
	C1588.718750,796.541809 1595.875000,780.396790 1602.888062,764.189758 
	C1613.177490,740.411072 1623.375488,716.592651 1633.610107,692.790283 
	C1640.454224,676.873169 1647.294189,660.954285 1654.655762,644.556519 
	C1657.058594,638.894836 1659.461548,633.233215 1661.864380,627.571594 
	C1662.242920,627.661438 1662.621460,627.751343 1663.000000,627.841187 
	C1663.000000,630.118225 1663.000000,632.395203 1663.000000,634.672241 
	C1663.000000,1046.285889 1662.999756,1457.899658 1663.006958,1869.513306 
	C1663.006958,1872.343994 1663.112061,1875.174561 1663.462891,1878.568237 
	C1664.288452,1878.655029 1665.114014,1878.741821 1666.879639,1878.932007 
	C1689.921875,1878.898926 1712.964111,1878.865723 1736.937622,1878.938721 
	C1756.545166,1878.959351 1776.152832,1879.011353 1795.760376,1878.992920 
	C1824.837646,1878.965576 1853.914917,1878.888550 1883.925537,1878.937500 
	C1911.922852,1878.958252 1939.920166,1879.021851 1967.917358,1878.977661 
	C1978.232300,1878.961426 1976.981323,1880.226318 1976.981689,1869.958740 
	C1977.003052,1256.673950 1977.000977,643.389221 1977.000244,30.104469 
	C1977.000244,28.437958 1976.887939,26.763891 1977.009277,25.106607 
	C1977.226318,22.139927 1976.040649,20.965929 1972.983154,20.975906 
	C1937.655151,21.091200 1902.326904,21.117680 1866.066406,21.064346 
	C1832.710815,21.097847 1799.355347,21.131348 1765.066895,21.061493 
	C1725.378662,21.096323 1685.690308,21.131151 1645.069580,21.062929 
	C1639.748535,21.045385 1634.422241,21.160847 1629.108521,20.955084 
	C1626.386475,20.849678 1624.877930,21.813108 1623.812378,24.300615 
	C1619.979248,33.248402 1615.938354,42.106930 1612.066772,51.038506 
	C1604.915771,67.536072 1597.796387,84.047539 1590.725952,100.579857 
	C1585.411255,113.006767 1580.194214,125.475365 1574.389282,138.380081 
	C1571.686523,144.409195 1568.916016,150.409012 1566.292725,156.472580 
	C1555.864014,180.577087 1545.452148,204.689056 1535.100342,228.826767 
	C1532.245728,235.482849 1529.621460,242.237717 1526.350952,249.383575 
	C1524.953003,252.590347 1523.554932,255.797119 1521.812256,259.624023 
	C1521.500854,260.735870 1521.189331,261.847717 1520.414185,263.285614 
	C1520.254517,263.822510 1520.094849,264.359436 1519.402344,265.293488 
	C1518.886719,266.502686 1518.371094,267.711884 1517.314209,269.387878 
	C1513.952759,277.088013 1510.563354,284.776093 1507.234985,292.490540 
	C1496.859619,316.539154 1486.482666,340.587158 1476.156250,364.656830 
	C1470.705200,377.362488 1465.357910,390.112701 1459.520020,403.094391 
	C1459.390259,403.394226 1459.260376,403.694031 1458.999023,404.440491 
	C1458.999023,404.440491 1458.888184,404.892670 1458.347046,405.336609 
	C1457.858032,406.877991 1457.369141,408.419373 1456.412598,410.286469 
	C1456.240479,410.822784 1456.068359,411.359070 1455.342041,412.355591 
	C1452.414551,419.182098 1449.522583,426.024048 1446.552612,432.832001 
	C1439.418823,449.184662 1432.202759,465.501526 1425.105225,481.869873 
	C1416.893188,500.808380 1408.815796,519.805359 1400.599976,538.742310 
	C1392.514038,557.380493 1384.290405,575.959045 1376.195557,594.593506 
	C1367.840210,613.827515 1359.530029,633.081360 1351.278931,652.360229 
	C1348.363159,659.172852 1345.680054,666.084961 1342.344116,673.387878 
	C1336.886963,685.950562 1331.454590,698.524048 1325.967407,711.073669 
	C1315.450562,735.126404 1304.848755,759.142090 1294.383423,783.217102 
	C1284.841187,805.168457 1275.403931,827.165588 1265.983154,849.169495 
	C1263.195679,855.680054 1260.620239,862.281311 1257.501587,869.081482 
	C1257.379639,869.380493 1257.257690,869.679443 1256.821411,870.596191 
	C1256.268555,872.063965 1255.715698,873.531738 1254.823120,875.634766 
	C1249.126343,888.624878 1243.440796,901.619873 1237.730347,914.604004 
	C1229.225464,933.941772 1220.641113,953.244812 1212.204468,972.612305 
	C1202.782349,994.242188 1193.452759,1015.912537 1184.154785,1037.596069 
	C1180.396484,1046.360718 1176.828735,1055.206909 1172.822388,1064.642578 
	C1169.593140,1071.669434 1166.244141,1078.644165 1163.156494,1085.732544 
	C1152.445435,1110.323120 1141.788086,1134.937134 1131.197144,1159.579590 
	C1128.608765,1165.601929 1126.351929,1171.766602 1123.366089,1178.286255 
	C1118.004150,1190.337158 1112.548828,1202.347656 1107.300049,1214.447632 
	C1096.731323,1238.811646 1086.266235,1263.220703 1075.782227,1287.621338 
	C1074.168213,1291.377808 1072.681274,1295.188721 1070.817627,1299.621948 
	C1069.371948,1302.759888 1067.871460,1305.873901 1066.489746,1309.039673 
	C1058.317871,1327.764160 1050.161499,1346.495361 1042.022705,1365.234253 
	C1032.504761,1387.148682 1022.966614,1409.054443 1013.526978,1431.002808 
	C1009.959229,1439.298218 1006.642334,1447.701660 1002.868774,1456.643433 
	C1001.825989,1458.430908 1000.783203,1460.218506 999.516541,1462.389771 
	C994.613098,1451.435425 989.867065,1441.082520 985.328552,1430.639526 
	C976.974915,1411.417725 968.744202,1392.142578 960.460449,1372.890381 
	C953.612305,1356.974365 946.827026,1341.030762 939.890320,1325.153442 
	C934.746460,1313.379639 929.404358,1301.692627 924.001953,1289.231201 
	C917.757385,1274.703125 911.518311,1260.172607 905.266968,1245.647461 
	C898.167297,1229.151245 891.094299,1212.643555 883.941162,1196.170410 
	C874.686279,1174.857178 865.367004,1153.571777 856.069214,1132.277222 
	C849.764343,1117.837280 843.448914,1103.401855 836.991028,1088.237793 
	C827.700806,1066.930908 818.351196,1045.649536 809.138428,1024.309204 
	C801.300781,1006.154175 793.709351,987.892639 785.834351,969.754028 
	C781.773438,960.400513 777.332092,951.212097 772.988770,941.345154 
	C772.672852,940.862671 772.356934,940.380249 772.037292,939.959290 
	C772.037292,939.959290 772.096313,939.941589 772.012817,939.189758 
	C771.072693,936.919250 770.167542,934.633484 769.187195,932.380432 
	C756.076050,902.249451 742.954407,872.123108 729.900085,841.311646 
	C729.203979,839.902344 728.507874,838.493103 727.732178,836.504089 
	C727.444763,835.997009 727.157410,835.489990 726.942200,834.377258 
	C726.644226,833.886841 726.346252,833.396484 725.953735,832.186890 
	C723.987976,828.090759 722.022217,823.994629 719.999939,819.149719 
	C716.746399,811.593994 713.500549,804.034912 710.237732,796.483154 
	C698.609070,769.568665 686.966614,742.660034 675.345154,715.742432 
	C667.184631,696.841248 659.118042,677.899292 650.878479,659.032715 
	C645.747498,647.284180 640.372314,635.642212 635.013367,623.207520 
	C631.287292,614.661133 627.523376,606.130981 623.842896,597.565002 
	C616.236206,579.861023 608.693909,562.129211 601.085754,544.425903 
	C596.411499,533.549561 591.731384,522.674805 586.931274,511.853729 
	C582.128967,501.027527 577.075378,490.312347 572.315613,479.467834 
	C568.030457,469.704834 563.994263,459.832611 559.704285,449.301819 
	C558.929749,447.491760 558.165466,445.677246 557.379150,443.872314 
	C549.286255,425.295685 541.154053,406.736053 533.103149,388.141296 
	C522.631592,363.955658 512.308777,339.705292 501.754608,315.555878 
	C495.957947,302.292267 489.817657,289.178864 483.928009,275.322693 
	C483.876099,274.872803 483.824188,274.422943 483.755585,273.500580 
	C483.588745,273.213867 483.346863,273.021454 482.925323,272.198059 
	C479.985352,265.558441 476.998657,258.939087 474.113647,252.275711 
	C462.507965,225.470581 451.008606,198.619156 439.323151,171.848892 
	C430.697205,152.087662 421.759308,132.462631 413.120758,112.706795 
	C407.207947,99.184608 401.570801,85.541855 395.797211,71.459503 
	C395.617645,71.162750 395.361420,70.965614 394.946960,70.138290 
	C390.975677,61.077820 387.004364,52.017353 382.949005,42.221058 
	C380.603973,36.626434 378.479004,30.922842 375.792389,25.497356 
	C374.874268,23.643293 372.553955,21.210245 370.861908,21.200544 
	C336.241028,21.002079 301.618347,21.116776 266.066162,21.047520 
	C238.709595,21.087597 211.353027,21.127674 183.066391,21.047304 
	C159.375961,21.086927 135.685532,21.126551 111.065338,21.044357 
	C80.824486,21.044357 50.583637,21.044357 19.996868,21.044357 
	C19.996868,24.184309 19.996868,26.500978 19.996868,28.817650 
	C19.996868,643.052551 19.996672,1257.287476 20.004700,1871.522339 
	C20.004728,1873.684692 20.123571,1875.847168 20.191891,1878.470093 
	C20.359684,1878.799561 20.620352,1878.910156 21.905252,1878.942627 
	C44.602104,1878.905762 67.298958,1878.868896 90.925690,1878.962280 
	C126.615105,1878.919434 162.304520,1878.876587 198.924271,1878.962646 
	C226.617752,1878.925049 254.311218,1878.887451 282.933289,1878.975220 
	C298.294403,1878.934692 313.655548,1878.894043 329.876251,1878.969482 
	C331.888092,1878.913574 333.899963,1878.857666 336.623993,1878.360107 
	C336.748322,1875.877075 336.981476,1873.393921 336.981567,1870.910889 
	C336.997589,1459.194946 336.996948,1047.479004 336.996948,635.763062 
	C336.996948,633.666199 336.996948,631.569336 336.996948,628.121887 
	C338.201996,629.867004 338.741241,630.430847 339.033051,631.102234 
	C347.047852,649.541687 354.994293,668.010864 363.046509,686.433960 
	C368.249359,698.337769 373.600830,710.176697 378.989410,722.795044 
	C382.054901,729.877563 385.120422,736.960022 388.200623,744.537903 
	C388.380524,744.835999 388.637512,745.033997 389.010834,745.878479 
	C392.589935,754.370850 396.092194,762.896545 399.763611,771.348755 
	C408.108063,790.559143 416.588470,809.710449 424.915955,828.928101 
	C435.144714,852.533325 445.262817,876.186462 455.449799,899.809814 
	C463.672699,918.878479 471.926849,937.933716 480.305145,957.685669 
	C481.182648,959.458069 482.140167,961.195740 482.925598,963.008057 
	C493.274139,986.886414 503.615692,1010.767822 513.923279,1034.663818 
	C522.012146,1053.416138 529.978638,1072.221680 538.139099,1090.942505 
	C543.262756,1102.696655 548.644348,1114.338257 554.013367,1126.528931 
	C554.059204,1126.692383 554.104980,1126.855713 554.177002,1127.529663 
	C554.440857,1127.734619 554.704712,1127.939697 555.012085,1128.896484 
	C556.496704,1132.552124 557.902710,1136.241943 559.479858,1139.857178 
	C565.543396,1153.756104 571.719482,1167.605957 577.747925,1181.519897 
	C591.514893,1213.294678 605.179260,1245.114014 618.988770,1276.870239 
	C621.308411,1282.204468 624.338928,1287.228271 626.691895,1292.549927 
	C629.072510,1297.933716 631.019714,1303.509399 633.101135,1309.733398 
	C634.609314,1313.210938 636.112183,1316.690674 637.626709,1320.165527 
	C645.673767,1338.628784 653.752014,1357.078491 661.766052,1375.556030 
	C672.404785,1400.085327 682.991455,1424.636963 693.605713,1449.176758 
	C701.794312,1468.108765 709.990967,1487.037354 718.201111,1506.441040 
	C718.339966,1506.749268 718.571533,1506.951172 719.002625,1507.510742 
	C719.002625,1507.510742 719.148804,1507.963989 719.295837,1508.663574 
	C721.919006,1514.443970 724.542175,1520.224365 727.091248,1526.677368 
	C727.714172,1527.822998 728.337036,1528.968750 729.043884,1530.839966 
	C732.206726,1538.231201 735.349670,1545.630859 738.536255,1553.011841 
	C746.738647,1572.010254 754.960388,1591.000366 763.261963,1610.593628 
	C763.812073,1611.410889 764.362244,1612.228149 765.023926,1613.773926 
	C766.335999,1616.541870 767.648071,1619.309937 769.036377,1622.816162 
	C773.665771,1633.579712 778.301331,1644.340698 782.923096,1655.107544 
	C790.735107,1673.306396 798.510498,1691.520996 806.353149,1709.706665 
	C814.587952,1728.801758 822.883789,1747.870483 831.288696,1767.642456 
	C840.210632,1788.042480 849.159546,1808.430664 858.045532,1828.846313 
	C864.760254,1844.273315 871.444031,1859.714478 878.019775,1875.201050 
	C879.236023,1878.065308 880.944824,1879.181519 884.069458,1879.070068 
	C891.053162,1878.821533 898.048340,1878.896851 905.513123,1878.898682 
	C905.513123,1878.898682 905.984009,1878.817749 906.909729,1878.924683 
	C911.264771,1878.885864 915.619812,1878.847046 920.910156,1878.929565 
	C943.605957,1878.897095 966.301697,1878.864746 989.928772,1878.948608 
	C1023.283875,1878.910278 1056.639038,1878.871948 1090.926392,1878.947510 
	C1099.370361,1878.963013 1107.816895,1879.086792 1116.256104,1878.891479 
	C1117.723267,1878.857666 1119.894165,1877.839722 1120.478516,1876.654419 
	C1122.645264,1872.259521 1124.284424,1867.604248 1126.679565,1862.613037 
	C1138.900146,1833.516724 1151.004883,1804.370972 1163.399780,1775.349121 
	C1168.210938,1764.083984 1173.677612,1753.098511 1179.205444,1741.347534 
	C1186.174438,1725.125366 1193.085327,1708.877930 1200.128784,1692.687988 
	C1207.309082,1676.183838 1214.689819,1659.766724 1221.855713,1643.256348 
	C1231.120850,1621.909180 1240.290405,1600.520264 1249.436157,1579.121582 
	C1252.410400,1572.162842 1255.180420,1565.116699 1258.601074,1557.670898 
	C1259.282715,1556.343506 1260.042114,1555.049805 1260.634155,1553.683472 
	C1269.112427,1534.119507 1277.583008,1514.552246 1286.024414,1494.972412 
	C1293.141113,1478.465576 1300.232178,1461.947510 1307.307861,1445.423096 
	C1313.019775,1432.083984 1318.641235,1418.706055 1324.395752,1405.385376 
	C1330.273682,1391.778931 1335.612427,1377.880127 1342.467651,1364.779297 
	C1346.190674,1357.664429 1345.854858,1348.949097 1352.019287,1342.251343 
	C1354.289795,1337.295166 1356.650269,1332.377808 1358.815063,1327.375854 
	C1368.124146,1305.867065 1377.343018,1284.319458 1386.658203,1262.813354 
	C1394.664062,1244.330444 1402.803101,1225.905029 1410.798340,1207.417480 
	C1421.149536,1183.482300 1431.421387,1159.512573 1441.718262,1135.553833 
	C1448.102295,1120.699951 1454.469238,1105.838623 1461.176025,1090.361816 
	C1461.068115,1086.712524 1463.541382,1084.278564 1465.070679,1081.307495 
	C1469.061401,1073.554443 1472.340576,1065.430542 1475.805908,1057.412476 
	C1485.084595,1035.943115 1494.349731,1014.467651 1503.545410,992.962585 
	C1508.787231,980.703979 1513.881958,968.382568 1519.589233,955.647705 
	C1520.100342,954.111877 1520.611450,952.576050 1521.594360,950.700073 
	C1521.770386,950.150757 1521.946411,949.601379 1522.664551,948.619812 
	C1523.150635,947.093201 1523.636719,945.566589 1524.637939,943.642639 
	C1525.130615,942.455994 1525.623291,941.269348 1526.604004,939.749207 
	C1526.784302,939.192444 1526.964600,938.635620 1527.678101,937.629395 
	C1528.479492,935.463135 1529.280884,933.296814 1530.536377,930.792786 
z"/>
<path fill="#4D74F3" opacity="1.000000" stroke="none" 
	d="
M1765.999756,21.164833 
	C1799.355347,21.131348 1832.710815,21.097847 1866.596436,21.520786 
	C1867.417725,26.622801 1867.963623,31.268358 1867.963867,35.913948 
	C1868.001953,644.625488 1868.000000,1253.337036 1868.001221,1862.048584 
	C1868.001221,1864.547974 1868.123779,1867.052490 1868.005737,1869.545776 
	C1867.788086,1874.143555 1870.180786,1876.120728 1874.475342,1876.753052 
	C1877.354004,1877.177002 1880.155884,1878.121216 1882.992188,1878.832520 
	C1853.914917,1878.888550 1824.837646,1878.965576 1795.760376,1878.992920 
	C1776.152832,1879.011353 1756.545166,1878.959351 1736.749268,1878.645020 
	C1738.964966,1877.898071 1741.359131,1877.121460 1743.775146,1877.045410 
	C1757.533081,1876.611816 1758.000000,1876.194580 1758.000000,1862.472534 
	C1758.000122,1253.739136 1758.002808,645.005676 1757.959717,36.272259 
	C1757.959351,30.460800 1757.476440,24.733772 1764.796387,22.712074 
	C1765.301392,22.572613 1765.603271,21.697716 1765.999756,21.164833 
z"/>
<path fill="#526DF3" opacity="1.000000" stroke="none" 
	d="
M1883.458862,1878.885010 
	C1880.155884,1878.121216 1877.354004,1877.177002 1874.475342,1876.753052 
	C1870.180786,1876.120728 1867.788086,1874.143555 1868.005737,1869.545776 
	C1868.123779,1867.052490 1868.001221,1864.547974 1868.001221,1862.048584 
	C1868.000000,1253.337036 1868.001953,644.625488 1867.963867,35.913948 
	C1867.963623,31.268358 1867.417725,26.622801 1867.062622,21.572487 
	C1902.326904,21.117680 1937.655151,21.091200 1972.983154,20.975906 
	C1976.040649,20.965929 1977.226318,22.139927 1977.009277,25.106607 
	C1976.887939,26.763891 1977.000244,28.437958 1977.000244,30.104469 
	C1977.000977,643.389221 1977.003052,1256.673950 1976.981689,1869.958740 
	C1976.981323,1880.226318 1978.232300,1878.961426 1967.917358,1878.977661 
	C1939.920166,1879.021851 1911.922852,1878.958252 1883.458862,1878.885010 
z"/>
<path fill="#487AF4" opacity="1.000000" stroke="none" 
	d="
M1765.533325,21.113155 
	C1765.603271,21.697716 1765.301392,22.572613 1764.796387,22.712074 
	C1757.476440,24.733772 1757.959351,30.460800 1757.959717,36.272259 
	C1758.002808,645.005676 1758.000122,1253.739136 1758.000000,1862.472534 
	C1758.000000,1876.194580 1757.533081,1876.611816 1743.775146,1877.045410 
	C1741.359131,1877.121460 1738.964966,1877.898071 1736.283569,1878.591797 
	C1712.964111,1878.865723 1689.921875,1878.898926 1666.141357,1878.769897 
	C1664.658203,1878.406982 1663.913208,1878.206055 1663.168213,1878.005249 
	C1663.112061,1875.174561 1663.006958,1872.343994 1663.006958,1869.513306 
	C1662.999756,1457.899658 1663.000000,1046.285889 1663.000000,634.672241 
	C1663.000000,632.395203 1663.000000,630.118225 1663.000000,627.841187 
	C1662.621460,627.751343 1662.242920,627.661438 1661.864380,627.571594 
	C1659.461548,633.233215 1657.058594,638.894836 1654.021973,644.713379 
	C1652.290405,643.405273 1650.652466,642.080322 1650.227661,640.441040 
	C1649.659424,638.247986 1650.003906,635.811279 1650.003906,633.479187 
	C1649.999634,434.189026 1649.993896,234.898849 1650.033447,35.608696 
	C1650.034546,30.351839 1650.022827,25.236134 1646.002075,21.165981 
	C1685.690308,21.131151 1725.378662,21.096323 1765.533325,21.113155 
z"/>
<path fill="#05D6FE" opacity="1.000000" stroke="none" 
	d="
M197.993927,1878.833740 
	C162.304520,1878.876587 126.615105,1878.919434 90.671783,1878.647705 
	C96.283356,1875.549805 97.714432,1870.666626 97.034874,1864.671143 
	C96.811089,1862.696777 96.999985,1860.675537 96.999985,1858.675781 
	C97.000031,1252.242676 96.999985,645.809631 97.001335,39.376530 
	C97.001335,36.710251 97.095680,34.041744 97.015724,31.378191 
	C96.884026,26.990648 98.974670,25.360977 103.302437,24.836058 
	C106.304207,24.471970 109.104691,22.448332 111.995110,21.166174 
	C135.685532,21.126551 159.375961,21.086927 183.740326,21.378323 
	C194.166672,24.228878 193.085892,31.816011 193.068329,39.336647 
	C192.941071,93.829887 193.000000,148.323563 193.000000,202.817093 
	C193.000046,756.751404 193.002121,1310.685669 192.970322,1864.619995 
	C192.970016,1870.027100 192.624023,1875.397583 197.993927,1878.833740 
z"/>
<path fill="#09D1FE" opacity="1.000000" stroke="none" 
	d="
M198.459106,1878.898193 
	C192.624023,1875.397583 192.970016,1870.027100 192.970322,1864.619995 
	C193.002121,1310.685669 193.000046,756.751404 193.000000,202.817093 
	C193.000000,148.323563 192.941071,93.829887 193.068329,39.336647 
	C193.085892,31.816011 194.166672,24.228878 184.205368,21.438545 
	C211.353027,21.127674 238.709595,21.087597 266.802338,21.346134 
	C268.119324,21.962479 268.664764,22.422295 269.286163,22.576805 
	C279.995789,25.239796 279.997864,25.231546 279.999939,36.429253 
	C280.000153,37.595749 280.000000,38.762249 280.000000,39.928745 
	C280.000000,647.341187 280.000000,1254.753662 280.000183,1862.166138 
	C280.000183,1864.332520 279.767059,1866.531006 280.057312,1868.657959 
	C280.524353,1872.080200 281.337677,1875.455078 282.004700,1878.849976 
	C254.311218,1878.887451 226.617752,1878.925049 198.459106,1878.898193 
z"/>
<path fill="#01DCFF" opacity="1.000000" stroke="none" 
	d="
M111.530228,21.105267 
	C109.104691,22.448332 106.304207,24.471970 103.302437,24.836058 
	C98.974670,25.360977 96.884026,26.990648 97.015724,31.378191 
	C97.095680,34.041744 97.001335,36.710251 97.001335,39.376530 
	C96.999985,645.809631 97.000031,1252.242676 96.999985,1858.675781 
	C96.999985,1860.675537 96.811089,1862.696777 97.034874,1864.671143 
	C97.714432,1870.666626 96.283356,1875.549805 90.206848,1878.582520 
	C67.298958,1878.868896 44.602104,1878.905762 21.315941,1878.732910 
	C20.556538,1878.341553 20.376637,1878.170410 20.186924,1878.009521 
	C20.123571,1875.847168 20.004728,1873.684692 20.004700,1871.522339 
	C19.996672,1257.287476 19.996868,643.052551 19.996868,28.817650 
	C19.996868,26.500978 19.996868,24.184309 19.996868,21.044357 
	C50.583637,21.044357 80.824486,21.044357 111.530228,21.105267 
z"/>
<path fill="#0DCCFD" opacity="1.000000" stroke="none" 
	d="
M282.468994,1878.912598 
	C281.337677,1875.455078 280.524353,1872.080200 280.057312,1868.657959 
	C279.767059,1866.531006 280.000183,1864.332520 280.000183,1862.166138 
	C280.000000,1254.753662 280.000000,647.341187 280.000000,39.928745 
	C280.000000,38.762249 280.000153,37.595749 279.999939,36.429253 
	C279.997864,25.231546 279.995789,25.239796 269.286163,22.576805 
	C268.664764,22.422295 268.119324,21.962479 267.267273,21.406906 
	C301.618347,21.116776 336.241028,21.002079 370.861908,21.200544 
	C372.553955,21.210245 374.874268,23.643293 375.792389,25.497356 
	C378.479004,30.922842 380.603973,36.626434 382.871338,42.940140 
	C382.862396,48.137207 382.991058,52.615189 382.991272,57.093182 
	C383.001129,275.140320 383.000122,493.187439 382.996826,711.234558 
	C382.996796,713.232971 383.464508,715.432068 382.784760,717.175049 
	C382.063660,719.023987 380.232208,720.439758 378.885681,722.044678 
	C373.600830,710.176697 368.249359,698.337769 363.046509,686.433960 
	C354.994293,668.010864 347.047852,649.541687 339.033051,631.102234 
	C338.741241,630.430847 338.201996,629.867004 336.996948,628.121887 
	C336.996948,631.569336 336.996948,633.666199 336.996948,635.763062 
	C336.996948,1047.479004 336.997589,1459.194946 336.981567,1870.910889 
	C336.981476,1873.393921 336.748322,1875.877075 335.934143,1878.471069 
	C333.168427,1878.672607 331.092560,1878.763062 329.016663,1878.853516 
	C313.655548,1878.894043 298.294403,1878.934692 282.468994,1878.912598 
z"/>
<path fill="#3B8CF6" opacity="1.000000" stroke="none" 
	d="
M1342.890625,672.951660 
	C1345.680054,666.084961 1348.363159,659.172852 1351.278931,652.360229 
	C1359.530029,633.081360 1367.840210,613.827515 1376.195557,594.593506 
	C1384.290405,575.959045 1392.514038,557.380493 1400.599976,538.742310 
	C1408.815796,519.805359 1416.893188,500.808380 1425.105225,481.869873 
	C1432.202759,465.501526 1439.418823,449.184662 1446.552612,432.832001 
	C1449.522583,426.024048 1452.414551,419.182098 1455.853271,412.405457 
	C1456.732178,414.347534 1457.361816,416.233490 1457.407349,418.133423 
	C1457.478638,421.118286 1457.020386,424.112579 1457.020020,427.102875 
	C1456.998779,644.798584 1457.000366,862.494324 1457.005615,1080.190063 
	C1457.005615,1082.021240 1456.623169,1084.027344 1457.238403,1085.638916 
	C1457.984619,1087.593384 1459.602905,1089.214966 1460.843994,1090.980591 
	C1454.469238,1105.838623 1448.102295,1120.699951 1441.718262,1135.553833 
	C1431.421387,1159.512573 1421.149536,1183.482300 1410.798340,1207.417480 
	C1402.803101,1225.905029 1394.664062,1244.330444 1386.658203,1262.813354 
	C1377.343018,1284.319458 1368.124146,1305.867065 1358.815063,1327.375854 
	C1356.650269,1332.377808 1354.289795,1337.295166 1351.596802,1342.506348 
	C1345.438477,1340.990845 1347.057739,1336.138550 1347.056519,1332.266113 
	C1346.992920,1117.680786 1347.000488,903.095581 1346.994263,688.510315 
	C1346.994263,685.679077 1347.413208,682.718323 1346.724243,680.053894 
	C1346.070312,677.525208 1344.216675,675.306641 1342.890625,672.951660 
z"/>
<path fill="#12C5FC" opacity="1.000000" stroke="none" 
	d="
M378.937561,722.419861 
	C380.232208,720.439758 382.063660,719.023987 382.784760,717.175049 
	C383.464508,715.432068 382.996796,713.232971 382.996826,711.234558 
	C383.000122,493.187439 383.001129,275.140320 382.991272,57.093182 
	C382.991058,52.615189 382.862396,48.137207 382.913361,43.308052 
	C387.004364,52.017353 390.975677,61.077820 395.116882,70.685028 
	C395.455841,71.476158 395.630402,71.716568 395.810425,71.953003 
	C401.570801,85.541855 407.207947,99.184608 413.120758,112.706795 
	C421.759308,132.462631 430.697205,152.087662 439.323151,171.848892 
	C451.008606,198.619156 462.507965,225.470581 474.113647,252.275711 
	C476.998657,258.939087 479.985352,265.558441 483.089935,272.743134 
	C483.413452,273.526794 483.585999,273.755096 483.772278,273.973053 
	C483.824188,274.422943 483.876099,274.872803 483.671997,275.901733 
	C483.277252,280.583710 483.017487,284.686646 483.017120,288.789581 
	C482.997559,508.072052 483.000061,727.354553 482.996277,946.637024 
	C482.996246,948.635986 483.285095,950.721802 482.807434,952.607056 
	C482.406128,954.190979 481.082489,955.541199 480.167114,956.994873 
	C471.926849,937.933716 463.672699,918.878479 455.449799,899.809814 
	C445.262817,876.186462 435.144714,852.533325 424.915955,828.928101 
	C416.588470,809.710449 408.108063,790.559143 399.763611,771.348755 
	C396.092194,762.896545 392.589935,754.370850 388.862000,745.322266 
	C388.543488,744.520386 388.367767,744.279236 388.185944,744.042542 
	C385.120422,736.960022 382.054901,729.877563 378.937561,722.419861 
z"/>
<path fill="#3792F7" opacity="1.000000" stroke="none" 
	d="
M1342.617432,673.169800 
	C1344.216675,675.306641 1346.070312,677.525208 1346.724243,680.053894 
	C1347.413208,682.718323 1346.994263,685.679077 1346.994263,688.510315 
	C1347.000488,903.095581 1346.992920,1117.680786 1347.056519,1332.266113 
	C1347.057739,1336.138550 1345.438477,1340.990845 1351.518311,1342.863525 
	C1345.854858,1348.949097 1346.190674,1357.664429 1342.467651,1364.779297 
	C1335.612427,1377.880127 1330.273682,1391.778931 1324.395752,1405.385376 
	C1318.641235,1418.706055 1313.019775,1432.083984 1307.307861,1445.423096 
	C1300.232178,1461.947510 1293.141113,1478.465576 1286.024414,1494.972412 
	C1277.583008,1514.552246 1269.112427,1534.119507 1260.634155,1553.683472 
	C1260.042114,1555.049805 1259.282715,1556.343506 1258.257324,1557.542969 
	C1258.609131,1551.361084 1259.909790,1545.307373 1259.912598,1539.253052 
	C1260.016846,1321.123779 1260.000244,1102.994507 1259.998779,884.865173 
	C1259.998779,883.032227 1259.927734,881.197876 1259.979126,879.366638 
	C1260.073364,876.001099 1258.741943,874.279297 1255.162842,874.999512 
	C1255.715698,873.531738 1256.268555,872.063965 1257.123047,870.103821 
	C1257.609253,869.361694 1257.783569,869.104858 1257.947510,868.841003 
	C1260.620239,862.281311 1263.195679,855.680054 1265.983154,849.169495 
	C1275.403931,827.165588 1284.841187,805.168457 1294.383423,783.217102 
	C1304.848755,759.142090 1315.450562,735.126404 1325.967407,711.073669 
	C1331.454590,698.524048 1336.886963,685.950562 1342.617432,673.169800 
z"/>
<path fill="#24ABFA" opacity="1.000000" stroke="none" 
	d="
M919.974854,1878.808350 
	C915.619812,1878.847046 911.264771,1878.885864 906.328613,1878.847412 
	C905.506836,1878.745239 905.270569,1878.768555 905.038879,1878.840088 
	C898.048340,1878.896851 891.053162,1878.821533 884.069458,1879.070068 
	C880.944824,1879.181519 879.236023,1878.065308 878.019775,1875.201050 
	C871.444031,1859.714478 864.760254,1844.273315 858.045532,1828.846313 
	C849.159546,1808.430664 840.210632,1788.042480 831.414734,1766.978149 
	C832.027100,1762.564087 832.937927,1758.814331 832.939087,1755.064453 
	C833.007141,1536.524414 832.999512,1317.984253 833.005249,1099.444214 
	C833.005310,1096.946899 832.644226,1094.325439 833.300659,1092.001831 
	C833.660095,1090.729492 835.800720,1089.960449 837.138184,1088.964478 
	C843.448914,1103.401855 849.764343,1117.837280 856.069214,1132.277222 
	C865.367004,1153.571777 874.686279,1174.857178 883.941162,1196.170410 
	C891.094299,1212.643555 898.167297,1229.151245 905.266968,1245.647461 
	C911.518311,1260.172607 917.757385,1274.703125 923.752014,1289.782227 
	C922.668152,1293.718262 921.106628,1297.102661 921.104553,1300.488159 
	C920.987183,1488.620605 921.007385,1676.753052 920.957031,1864.885620 
	C920.955811,1869.526611 920.316528,1874.167480 919.974854,1878.808350 
z"/>
<path fill="#3397F7" opacity="1.000000" stroke="none" 
	d="
M1254.992920,875.317139 
	C1258.741943,874.279297 1260.073364,876.001099 1259.979126,879.366638 
	C1259.927734,881.197876 1259.998779,883.032227 1259.998779,884.865173 
	C1260.000244,1102.994507 1260.016846,1321.123779 1259.912598,1539.253052 
	C1259.909790,1545.307373 1258.609131,1551.361084 1257.978760,1557.762817 
	C1255.180420,1565.116699 1252.410400,1572.162842 1249.436157,1579.121582 
	C1240.290405,1600.520264 1231.120850,1621.909180 1221.855713,1643.256348 
	C1214.689819,1659.766724 1207.309082,1676.183838 1200.128784,1692.687988 
	C1193.085327,1708.877930 1186.174438,1725.125366 1178.726074,1741.476074 
	C1177.497803,1738.172729 1176.095093,1734.741333 1176.093506,1731.309082 
	C1175.989746,1512.831299 1176.000244,1294.353516 1175.997803,1075.875732 
	C1175.997803,1073.542847 1176.309204,1071.136841 1175.834961,1068.900757 
	C1175.466309,1067.162598 1174.098145,1065.636475 1173.174194,1064.015991 
	C1176.828735,1055.206909 1180.396484,1046.360718 1184.154785,1037.596069 
	C1193.452759,1015.912537 1202.782349,994.242188 1212.204468,972.612305 
	C1220.641113,953.244812 1229.225464,933.941772 1237.730347,914.604004 
	C1243.440796,901.619873 1249.126343,888.624878 1254.992920,875.317139 
z"/>
<path fill="#1CB7FB" opacity="1.000000" stroke="none" 
	d="
M635.106689,623.952393 
	C640.372314,635.642212 645.747498,647.284180 650.878479,659.032715 
	C659.118042,677.899292 667.184631,696.841248 675.345154,715.742432 
	C686.966614,742.660034 698.609070,769.568665 710.237732,796.483154 
	C713.500549,804.034912 716.746399,811.593994 719.851074,819.833435 
	C719.468140,825.436829 719.028015,830.356567 719.029602,835.276184 
	C719.101685,1057.617676 719.214355,1279.959106 719.271851,1502.300659 
	C719.272156,1503.522827 718.562317,1504.745117 718.184082,1505.967407 
	C709.990967,1487.037354 701.794312,1468.108765 693.605713,1449.176758 
	C682.991455,1424.636963 672.404785,1400.085327 661.766052,1375.556030 
	C653.752014,1357.078491 645.673767,1338.628784 637.626709,1320.165527 
	C636.112183,1316.690674 634.609314,1313.210938 633.407959,1309.149170 
	C634.476440,1304.776611 635.902832,1300.988525 635.904724,1297.199829 
	C636.011658,1082.208130 636.014587,867.216431 635.940002,652.224731 
	C635.937317,644.591858 634.997192,636.961914 634.614319,629.324585 
	C634.525208,627.546570 634.929504,625.743774 635.106689,623.952393 
z"/>
<path fill="#18BCFB" opacity="1.000000" stroke="none" 
	d="
M635.060059,623.579956 
	C634.929504,625.743774 634.525208,627.546570 634.614319,629.324585 
	C634.997192,636.961914 635.937317,644.591858 635.940002,652.224731 
	C636.014587,867.216431 636.011658,1082.208130 635.904724,1297.199829 
	C635.902832,1300.988525 634.476440,1304.776611 633.435730,1308.782959 
	C631.019714,1303.509399 629.072510,1297.933716 626.691895,1292.549927 
	C624.338928,1287.228271 621.308411,1282.204468 618.988770,1276.870239 
	C605.179260,1245.114014 591.514893,1213.294678 577.747925,1181.519897 
	C571.719482,1167.605957 565.543396,1153.756104 559.479858,1139.857178 
	C557.902710,1136.241943 556.496704,1132.552124 554.858887,1128.329346 
	C554.529602,1127.507935 554.344604,1127.260254 554.150757,1127.019165 
	C554.104980,1126.855713 554.059204,1126.692383 554.208984,1125.986938 
	C554.936340,1121.894043 555.932434,1118.343384 555.933594,1114.792358 
	C556.007629,897.411255 555.999756,680.030090 556.003174,462.648956 
	C556.003235,460.150757 555.577087,457.520386 556.224792,455.195496 
	C556.758789,453.278778 558.591248,451.723816 559.848267,450.008545 
	C563.994263,459.832611 568.030457,469.704834 572.315613,479.467834 
	C577.075378,490.312347 582.128967,501.027527 586.931274,511.853729 
	C591.731384,522.674805 596.411499,533.549561 601.085754,544.425903 
	C608.693909,562.129211 616.236206,579.861023 623.842896,597.565002 
	C627.523376,606.130981 631.287292,614.661133 635.060059,623.579956 
z"/>
<path fill="#4480F5" opacity="1.000000" stroke="none" 
	d="
M1645.535889,21.114456 
	C1650.022827,25.236134 1650.034546,30.351839 1650.033447,35.608696 
	C1649.993896,234.898849 1649.999634,434.189026 1650.003906,633.479187 
	C1650.003906,635.811279 1649.659424,638.247986 1650.227661,640.441040 
	C1650.652466,642.080322 1652.290405,643.405273 1653.762207,644.953186 
	C1647.294189,660.954285 1640.454224,676.873169 1633.610107,692.790283 
	C1623.375488,716.592651 1613.177490,740.411072 1602.888062,764.189758 
	C1595.875000,780.396790 1588.718750,796.541809 1581.657104,812.727905 
	C1579.943481,816.655457 1578.349731,820.635193 1576.091919,824.668091 
	C1574.655396,821.548218 1573.104858,818.351685 1573.103271,815.154297 
	C1572.989502,596.337891 1572.982178,377.521484 1573.081177,158.705078 
	C1573.084351,151.778244 1574.289062,144.851944 1574.933594,137.925400 
	C1580.194214,125.475365 1585.411255,113.006767 1590.725952,100.579857 
	C1597.796387,84.047539 1604.915771,67.536072 1612.066772,51.038506 
	C1615.938354,42.106930 1619.979248,33.248402 1623.812378,24.300615 
	C1624.877930,21.813108 1626.386475,20.849678 1629.108521,20.955084 
	C1634.422241,21.160847 1639.748535,21.045385 1645.535889,21.114456 
z"/>
<path fill="#15C0FC" opacity="1.000000" stroke="none" 
	d="
M559.776245,449.655182 
	C558.591248,451.723816 556.758789,453.278778 556.224792,455.195496 
	C555.577087,457.520386 556.003235,460.150757 556.003174,462.648956 
	C555.999756,680.030090 556.007629,897.411255 555.933594,1114.792358 
	C555.932434,1118.343384 554.936340,1121.894043 554.157349,1125.737671 
	C548.644348,1114.338257 543.262756,1102.696655 538.139099,1090.942505 
	C529.978638,1072.221680 522.012146,1053.416138 513.923279,1034.663818 
	C503.615692,1010.767822 493.274139,986.886414 482.925598,963.008057 
	C482.140167,961.195740 481.182648,959.458069 480.236145,957.340271 
	C481.082489,955.541199 482.406128,954.190979 482.807434,952.607056 
	C483.285095,950.721802 482.996246,948.635986 482.996277,946.637024 
	C483.000061,727.354553 482.997559,508.072052 483.017120,288.789581 
	C483.017487,284.686646 483.277252,280.583710 483.624146,276.239258 
	C489.817657,289.178864 495.957947,302.292267 501.754608,315.555878 
	C512.308777,339.705292 522.631592,363.955658 533.103149,388.141296 
	C541.154053,406.736053 549.286255,425.295685 557.379150,443.872314 
	C558.165466,445.677246 558.929749,447.491760 559.776245,449.655182 
z"/>
<path fill="#20B1FA" opacity="1.000000" stroke="none" 
	d="
M837.064575,1088.601074 
	C835.800720,1089.960449 833.660095,1090.729492 833.300659,1092.001831 
	C832.644226,1094.325439 833.005310,1096.946899 833.005249,1099.444214 
	C832.999512,1317.984253 833.007141,1536.524414 832.939087,1755.064453 
	C832.937927,1758.814331 832.027100,1762.564087 831.346863,1766.632324 
	C822.883789,1747.870483 814.587952,1728.801758 806.353149,1709.706665 
	C798.510498,1691.520996 790.735107,1673.306396 782.923096,1655.107544 
	C778.301331,1644.340698 773.665771,1633.579712 769.083618,1622.078125 
	C770.097473,1614.906128 769.404907,1613.544312 764.912415,1613.045410 
	C764.362244,1612.228149 763.812073,1611.410889 763.603394,1610.269287 
	C767.547424,1609.859497 768.908142,1607.744019 768.937988,1604.426758 
	C768.960449,1601.927856 768.997437,1599.428955 768.997437,1596.930054 
	C769.000244,1381.833984 768.999695,1166.737915 769.003174,951.641846 
	C769.003174,949.309753 768.677795,946.890015 769.197876,944.673889 
	C769.599182,942.963928 771.089905,941.509583 772.096313,939.941528 
	C772.096313,939.941589 772.037292,939.959290 772.152649,940.193054 
	C772.532898,940.934204 772.797791,941.441650 773.062744,941.949036 
	C777.332092,951.212097 781.773438,960.400513 785.834351,969.754028 
	C793.709351,987.892639 801.300781,1006.154175 809.138428,1024.309204 
	C818.351196,1045.649536 827.700806,1066.930908 837.064575,1088.601074 
z"/>
<path fill="#28A6F9" opacity="1.000000" stroke="none" 
	d="
M920.442505,1878.868896 
	C920.316528,1874.167480 920.955811,1869.526611 920.957031,1864.885620 
	C921.007385,1676.753052 920.987183,1488.620605 921.104553,1300.488159 
	C921.106628,1297.102661 922.668152,1293.718262 923.826294,1290.150146 
	C929.404358,1301.692627 934.746460,1313.379639 939.890320,1325.153442 
	C946.827026,1341.030762 953.612305,1356.974365 960.460449,1372.890381 
	C968.744202,1392.142578 976.974915,1411.417725 985.328552,1430.639526 
	C989.867065,1441.082520 994.613098,1451.435425 999.516541,1462.389771 
	C1000.783203,1460.218506 1001.825989,1458.430908 1003.367676,1456.466797 
	C1008.308289,1458.679932 1006.937927,1462.965820 1006.939819,1466.566406 
	C1007.010010,1599.473999 1006.999084,1732.381714 1006.997253,1865.289307 
	C1006.997253,1866.621582 1007.015564,1867.955933 1006.950867,1869.285767 
	C1006.655090,1875.365967 1005.157532,1876.625732 999.029907,1877.052734 
	C995.660828,1877.287354 992.340027,1878.216309 988.997498,1878.832275 
	C966.301697,1878.864746 943.605957,1878.897095 920.442505,1878.868896 
z"/>
<path fill="#4085F6" opacity="1.000000" stroke="none" 
	d="
M1574.661377,138.152740 
	C1574.289062,144.851944 1573.084351,151.778244 1573.081177,158.705078 
	C1572.982178,377.521484 1572.989502,596.337891 1573.103271,815.154297 
	C1573.104858,818.351685 1574.655396,821.548218 1575.825806,824.903564 
	C1573.149658,832.003540 1570.672729,839.248474 1566.994019,845.820740 
	C1560.277466,857.820190 1556.978760,871.171875 1551.122437,883.506104 
	C1544.069580,898.360596 1537.706665,913.542542 1530.494751,928.955872 
	C1525.812622,931.222107 1524.434326,933.996277 1527.144775,938.078796 
	C1526.964600,938.635620 1526.784302,939.192444 1526.076172,940.012634 
	C1525.073120,941.530701 1524.597900,942.785339 1524.122681,944.039978 
	C1523.636719,945.566589 1523.150635,947.093201 1522.176880,948.886292 
	C1521.500244,949.781921 1521.311401,950.411072 1521.122559,951.040283 
	C1520.611450,952.576050 1520.100342,954.111877 1519.056885,955.802246 
	C1515.449341,956.277222 1513.813721,955.122559 1514.006104,951.799622 
	C1514.131104,949.641846 1514.001221,947.469910 1514.001221,945.304321 
	C1513.999756,815.197144 1514.000000,685.089966 1514.000000,554.982788 
	C1514.000000,468.688904 1514.011353,382.394989 1513.979126,296.101105 
	C1513.976562,289.202423 1514.501343,282.570770 1517.944214,276.271637 
	C1518.968506,274.397491 1517.942139,271.402527 1517.855469,268.921112 
	C1518.371094,267.711884 1518.886719,266.502686 1519.872559,265.147461 
	C1520.521118,264.320801 1520.699463,263.640198 1520.877930,262.959595 
	C1521.189331,261.847717 1521.500854,260.735870 1522.318848,259.223450 
	C1527.354126,256.837616 1527.754272,253.152451 1526.891479,248.947266 
	C1529.621460,242.237717 1532.245728,235.482849 1535.100342,228.826767 
	C1545.452148,204.689056 1555.864014,180.577087 1566.292725,156.472580 
	C1568.916016,150.409012 1571.686523,144.409195 1574.661377,138.152740 
z"/>
<path fill="#4086F5" opacity="1.000000" stroke="none" 
	d="
M1517.584839,269.154480 
	C1517.942139,271.402527 1518.968506,274.397491 1517.944214,276.271637 
	C1514.501343,282.570770 1513.976562,289.202423 1513.979126,296.101105 
	C1514.011353,382.394989 1514.000000,468.688904 1514.000000,554.982788 
	C1514.000000,685.089966 1513.999756,815.197144 1514.001221,945.304321 
	C1514.001221,947.469910 1514.131104,949.641846 1514.006104,951.799622 
	C1513.813721,955.122559 1515.449341,956.277222 1518.783813,956.023071 
	C1513.881958,968.382568 1508.787231,980.703979 1503.545410,992.962585 
	C1494.349731,1014.467651 1485.084595,1035.943115 1475.805908,1057.412476 
	C1472.340576,1065.430542 1469.061401,1073.554443 1465.070679,1081.307495 
	C1463.541382,1084.278564 1461.068115,1086.712524 1461.010010,1090.671143 
	C1459.602905,1089.214966 1457.984619,1087.593384 1457.238403,1085.638916 
	C1456.623169,1084.027344 1457.005615,1082.021240 1457.005615,1080.190063 
	C1457.000366,862.494324 1456.998779,644.798584 1457.020020,427.102875 
	C1457.020386,424.112579 1457.478638,421.118286 1457.407349,418.133423 
	C1457.361816,416.233490 1456.732178,414.347534 1456.130371,412.175354 
	C1456.068359,411.359070 1456.240479,410.822784 1456.936890,409.984375 
	C1457.936890,408.085785 1458.412476,406.489227 1458.888184,404.892670 
	C1458.888184,404.892670 1458.999023,404.440491 1459.212891,404.031616 
	C1459.616455,403.370056 1459.795410,403.110077 1459.963745,402.842834 
	C1465.357910,390.112701 1470.705200,377.362488 1476.156250,364.656830 
	C1486.482666,340.587158 1496.859619,316.539154 1507.234985,292.490540 
	C1510.563354,284.776093 1513.952759,277.088013 1517.584839,269.154480 
z"/>
<path fill="#2F9CF8" opacity="1.000000" stroke="none" 
	d="
M1172.998291,1064.329346 
	C1174.098145,1065.636475 1175.466309,1067.162598 1175.834961,1068.900757 
	C1176.309204,1071.136841 1175.997803,1073.542847 1175.997803,1075.875732 
	C1176.000244,1294.353516 1175.989746,1512.831299 1176.093506,1731.309082 
	C1176.095093,1734.741333 1177.497803,1738.172729 1178.546265,1741.795166 
	C1173.677612,1753.098511 1168.210938,1764.083984 1163.399780,1775.349121 
	C1151.004883,1804.370972 1138.900146,1833.516724 1126.130249,1862.561279 
	C1125.053955,1859.303711 1124.067383,1856.098145 1124.066040,1852.892090 
	C1123.991577,1678.181274 1124.004150,1503.470459 1123.997314,1328.759644 
	C1123.995361,1278.461670 1123.961792,1228.163818 1123.942627,1177.865845 
	C1126.351929,1171.766602 1128.608765,1165.601929 1131.197144,1159.579590 
	C1141.788086,1134.937134 1152.445435,1110.323120 1163.156494,1085.732544 
	C1166.244141,1078.644165 1169.593140,1071.669434 1172.998291,1064.329346 
z"/>
<path fill="#2CA1F8" opacity="1.000000" stroke="none" 
	d="
M989.463135,1878.890381 
	C992.340027,1878.216309 995.660828,1877.287354 999.029907,1877.052734 
	C1005.157532,1876.625732 1006.655090,1875.365967 1006.950867,1869.285767 
	C1007.015564,1867.955933 1006.997253,1866.621582 1006.997253,1865.289307 
	C1006.999084,1732.381714 1007.010010,1599.473999 1006.939819,1466.566406 
	C1006.937927,1462.965820 1008.308289,1458.679932 1003.538757,1456.172974 
	C1006.642334,1447.701660 1009.959229,1439.298218 1013.526978,1431.002808 
	C1022.966614,1409.054443 1032.504761,1387.148682 1042.022705,1365.234253 
	C1050.161499,1346.495361 1058.317871,1327.764160 1066.489746,1309.039673 
	C1067.871460,1305.873901 1069.371948,1302.759888 1071.356201,1299.342041 
	C1073.239258,1300.643921 1075.176025,1302.032227 1075.773438,1303.858521 
	C1076.464355,1305.971313 1075.996948,1308.469604 1075.997070,1310.800537 
	C1076.000244,1494.645508 1075.999878,1678.490601 1076.000854,1862.335571 
	C1076.000977,1864.666870 1076.101929,1867.001709 1076.005615,1869.328735 
	C1075.815674,1873.913940 1077.862427,1875.864868 1082.518677,1876.127808 
	C1085.053467,1876.271118 1087.505005,1877.883789 1089.994141,1878.833618 
	C1056.639038,1878.871948 1023.283875,1878.910278 989.463135,1878.890381 
z"/>
<path fill="#1FB2FA" opacity="1.000000" stroke="none" 
	d="
M772.054565,939.565674 
	C771.089905,941.509583 769.599182,942.963928 769.197876,944.673889 
	C768.677795,946.890015 769.003174,949.309753 769.003174,951.641846 
	C768.999695,1166.737915 769.000244,1381.833984 768.997437,1596.930054 
	C768.997437,1599.428955 768.960449,1601.927856 768.937988,1604.426758 
	C768.908142,1607.744019 767.547424,1609.859497 763.559570,1609.969360 
	C754.960388,1591.000366 746.738647,1572.010254 738.536255,1553.011841 
	C735.349670,1545.630859 732.206726,1538.231201 728.965576,1530.143066 
	C728.313354,1528.299194 727.739380,1527.151978 727.165405,1526.004761 
	C724.542175,1520.224365 721.919006,1514.443970 719.202026,1508.196045 
	C719.058167,1507.494873 718.987366,1507.267578 718.895874,1507.046509 
	C718.571533,1506.951172 718.339966,1506.749268 718.192627,1506.204224 
	C718.562317,1504.745117 719.272156,1503.522827 719.271851,1502.300659 
	C719.214355,1279.959106 719.101685,1057.617676 719.029602,835.276184 
	C719.028015,830.356567 719.468140,825.436829 719.879333,820.207886 
	C722.022217,823.994629 723.987976,828.090759 726.090881,832.810669 
	C726.442017,833.950623 726.656006,834.466736 726.869995,834.982910 
	C727.157410,835.489990 727.444763,835.997009 727.686951,837.082520 
	C728.372986,839.105774 729.104187,840.550659 729.835388,841.995544 
	C742.954407,872.123108 756.076050,902.249451 769.187195,932.380432 
	C770.167542,934.633484 771.072693,936.919250 772.054565,939.565674 
z"/>
<path fill="#2E9DF8" opacity="1.000000" stroke="none" 
	d="
M1090.460205,1878.890625 
	C1087.505005,1877.883789 1085.053467,1876.271118 1082.518677,1876.127808 
	C1077.862427,1875.864868 1075.815674,1873.913940 1076.005615,1869.328735 
	C1076.101929,1867.001709 1076.000977,1864.666870 1076.000854,1862.335571 
	C1075.999878,1678.490601 1076.000244,1494.645508 1075.997070,1310.800537 
	C1075.996948,1308.469604 1076.464355,1305.971313 1075.773438,1303.858521 
	C1075.176025,1302.032227 1073.239258,1300.643921 1071.515137,1299.018311 
	C1072.681274,1295.188721 1074.168213,1291.377808 1075.782227,1287.621338 
	C1086.266235,1263.220703 1096.731323,1238.811646 1107.300049,1214.447632 
	C1112.548828,1202.347656 1118.004150,1190.337158 1123.654297,1178.076050 
	C1123.961792,1228.163818 1123.995361,1278.461670 1123.997314,1328.759644 
	C1124.004150,1503.470459 1123.991577,1678.181274 1124.066040,1852.892090 
	C1124.067383,1856.098145 1125.053955,1859.303711 1125.851318,1862.778198 
	C1124.284424,1867.604248 1122.645264,1872.259521 1120.478516,1876.654419 
	C1119.894165,1877.839722 1117.723267,1878.857666 1116.256104,1878.891479 
	C1107.816895,1879.086792 1099.370361,1878.963013 1090.460205,1878.890625 
z"/>
<path fill="#1FB2FA" opacity="1.000000" stroke="none" 
	d="
M764.968140,1613.409668 
	C769.404907,1613.544312 770.097473,1614.906128 769.045471,1621.708984 
	C767.648071,1619.309937 766.335999,1616.541870 764.968140,1613.409668 
z"/>
<path fill="#4086F5" opacity="1.000000" stroke="none" 
	d="
M1526.621216,249.165421 
	C1527.754272,253.152451 1527.354126,256.837616 1522.491089,258.913391 
	C1523.554932,255.797119 1524.953003,252.590347 1526.621216,249.165421 
z"/>
<path fill="#4086F5" opacity="1.000000" stroke="none" 
	d="
M1527.411377,937.854126 
	C1524.434326,933.996277 1525.812622,931.222107 1530.325439,929.231750 
	C1530.706421,929.134460 1530.544067,929.521484 1530.325439,929.900391 
	C1530.098755,930.563110 1530.090576,930.846802 1530.082275,931.130554 
	C1529.280884,933.296814 1528.479492,935.463135 1527.411377,937.854126 
z"/>
<path fill="#3B8CF6" opacity="1.000000" stroke="none" 
	d="
M1458.617676,405.114624 
	C1458.412476,406.489227 1457.936890,408.085785 1457.170654,409.821533 
	C1457.369141,408.419373 1457.858032,406.877991 1458.617676,405.114624 
z"/>
<path fill="#4086F5" opacity="1.000000" stroke="none" 
	d="
M1524.380371,943.841309 
	C1524.597900,942.785339 1525.073120,941.530701 1525.832153,940.179382 
	C1525.623291,941.269348 1525.130615,942.455994 1524.380371,943.841309 
z"/>
<path fill="#1CB7FB" opacity="1.000000" stroke="none" 
	d="
M729.867737,841.653564 
	C729.104187,840.550659 728.372986,839.105774 727.726685,837.372375 
	C728.507874,838.493103 729.203979,839.902344 729.867737,841.653564 
z"/>
<path fill="#4086F5" opacity="1.000000" stroke="none" 
	d="
M1520.645996,263.122620 
	C1520.699463,263.640198 1520.521118,264.320801 1520.138916,264.948883 
	C1520.094849,264.359436 1520.254517,263.822510 1520.645996,263.122620 
z"/>
<path fill="#09D1FE" opacity="1.000000" stroke="none" 
	d="
M329.446472,1878.911499 
	C331.092560,1878.763062 333.168427,1878.672607 335.578064,1878.691895 
	C333.899963,1878.857666 331.888092,1878.913574 329.446472,1878.911499 
z"/>
<path fill="#4086F5" opacity="1.000000" stroke="none" 
	d="
M1521.358398,950.870117 
	C1521.311401,950.411072 1521.500244,949.781921 1521.905762,949.102417 
	C1521.946411,949.601379 1521.770386,950.150757 1521.358398,950.870117 
z"/>
<path fill="#1CB7FB" opacity="1.000000" stroke="none" 
	d="
M727.128296,1526.341064 
	C727.739380,1527.151978 728.313354,1528.299194 728.923584,1529.780273 
	C728.337036,1528.968750 727.714172,1527.822998 727.128296,1526.341064 
z"/>
<path fill="#4D74F3" opacity="1.000000" stroke="none" 
	d="
M1663.315552,1878.286743 
	C1663.913208,1878.206055 1664.658203,1878.406982 1665.671387,1878.718262 
	C1665.114014,1878.741821 1664.288452,1878.655029 1663.315552,1878.286743 
z"/>
<path fill="#1FB2FA" opacity="1.000000" stroke="none" 
	d="
M773.025757,941.647095 
	C772.797791,941.441650 772.532898,940.934204 772.154541,940.162292 
	C772.356934,940.380249 772.672852,940.862671 773.025757,941.647095 
z"/>
<path fill="#1CB7FB" opacity="1.000000" stroke="none" 
	d="
M726.906128,834.680054 
	C726.656006,834.466736 726.442017,833.950623 726.138184,833.170288 
	C726.346252,833.396484 726.644226,833.886841 726.906128,834.680054 
z"/>
<path fill="#3B8CF6" opacity="1.000000" stroke="none" 
	d="
M1459.741943,402.968628 
	C1459.795410,403.110077 1459.616455,403.370056 1459.278687,403.808319 
	C1459.260376,403.694031 1459.390259,403.394226 1459.741943,402.968628 
z"/>
<path fill="#15C0FC" opacity="1.000000" stroke="none" 
	d="
M483.763916,273.736816 
	C483.585999,273.755096 483.413452,273.526794 483.142212,273.105774 
	C483.346863,273.021454 483.588745,273.213867 483.763916,273.736816 
z"/>
<path fill="#15C0FC" opacity="1.000000" stroke="none" 
	d="
M554.163879,1127.274414 
	C554.344604,1127.260254 554.529602,1127.507935 554.837158,1127.953491 
	C554.704712,1127.939697 554.440857,1127.734619 554.163879,1127.274414 
z"/>
<path fill="#4085F6" opacity="1.000000" stroke="none" 
	d="
M1530.309326,930.961670 
	C1530.090576,930.846802 1530.098755,930.563110 1530.120850,929.853577 
	C1530.268799,929.882751 1530.402588,930.337769 1530.309326,930.961670 
z"/>
<path fill="#0DCCFD" opacity="1.000000" stroke="none" 
	d="
M388.193298,744.290222 
	C388.367767,744.279236 388.543488,744.520386 388.842346,744.948975 
	C388.637512,745.033997 388.380524,744.835999 388.193298,744.290222 
z"/>
<path fill="#0DCCFD" opacity="1.000000" stroke="none" 
	d="
M395.803833,71.706253 
	C395.630402,71.716568 395.455841,71.476158 395.157654,71.049927 
	C395.361420,70.965614 395.617645,71.162750 395.803833,71.706253 
z"/>
<path fill="#1CB7FB" opacity="1.000000" stroke="none" 
	d="
M718.949219,1507.278564 
	C718.987366,1507.267578 719.058167,1507.494873 719.128479,1507.846313 
	C719.148804,1507.963989 719.002625,1507.510742 718.949219,1507.278564 
z"/>
<path fill="#3397F7" opacity="1.000000" stroke="none" 
	d="
M1257.724609,868.961243 
	C1257.783569,869.104858 1257.609253,869.361694 1257.280151,869.794922 
	C1257.257690,869.679443 1257.379639,869.380493 1257.724609,868.961243 
z"/>
<path fill="#05D6FE" opacity="1.000000" stroke="none" 
	d="
M20.189407,1878.239746 
	C20.376637,1878.170410 20.556538,1878.341553 20.850262,1878.662598 
	C20.620352,1878.910156 20.359684,1878.799561 20.189407,1878.239746 
z"/>
<path fill="#2CA1F8" opacity="1.000000" stroke="none" 
	d="
M905.276001,1878.869385 
	C905.270569,1878.768555 905.506836,1878.745239 905.865784,1878.793945 
	C905.984009,1878.817749 905.513123,1878.898682 905.276001,1878.869385 
z"/>
</svg>